<?xml version="1.0" standalone="no"?>
<!DOCTYPE svg PUBLIC "-//W3C//DTD SVG 20010904//EN"
 "http://www.w3.org/TR/2001/REC-SVG-20010904/DTD/svg10.dtd">
<svg version="1.0" xmlns="http://www.w3.org/2000/svg"
 width="165.000000pt" height="165.000000pt" viewBox="0 0 165.000000 165.000000"
 preserveAspectRatio="xMidYMid meet">
<metadata>
Created by potrace 1.11, written by Peter Selinger 2001-2013
</metadata>
<g transform="translate(0.000000,165.000000) scale(0.100000,-0.100000)"
fill="#000000" stroke="none">
<path d="M739 1447 c-48 -45 -189 -182 -315 -303 -126 -122 -273 -264 -327
-316 l-99 -94 116 1 116 2 1 -36 c0 -20 0 -156 0 -303 l-1 -268 22 -1 c33 -1
369 0 393 1 14 1 6 8 -23 22 -57 27 -142 106 -181 166 -52 82 -73 155 -73 262
-2 245 103 421 407 685 56 48 60 48 61 -4 3 -87 56 -161 198 -278 111 -91 172
-150 207 -201 108 -154 77 -391 -69 -536 -52 -52 -130 -106 -151 -106 -8 0
-12 -3 -8 -6 5 -5 248 -8 372 -5 l30 1 0 291 c0 160 3 296 7 302 5 8 42 13
100 13 51 1 100 2 108 3 9 1 -19 34 -65 77 -44 42 -183 176 -309 298 -126 121
-250 241 -275 265 -25 24 -71 68 -101 97 l-55 53 -86 -82z"/>
<path d="M699 1093 c-41 -43 -94 -103 -116 -133 -212 -285 -171 -612 94 -742
62 -30 76 -33 158 -33 77 0 99 4 149 28 l59 27 -43 29 c-23 15 -67 52 -97 82
-171 167 -237 384 -187 614 8 39 18 82 21 98 3 15 9 29 13 32 4 2 3 -17 -2
-43 -36 -192 22 -419 150 -582 39 -50 131 -141 172 -170 l27 -19 28 30 c40 46
83 139 93 203 26 162 -31 259 -229 392 -136 90 -190 151 -207 229 l-7 36 -76
-78z"/>
</g>
</svg>
